<mxfile host="app.diagrams.net" modified="2024-04-23T10:47:50.235Z" agent="Mozilla/5.0 (Windows NT 10.0; Win64; x64) AppleWebKit/537.36 (KHTML, like Gecko) Chrome/124.0.0.0 Safari/537.36 Edg/124.0.0.0" etag="ZiHfmPLfpvLzRtFmyBJy" version="24.2.3" type="device">
  <diagram name="Strona-1" id="n7S3PR9CQxsB_8CDd5EO">
    <mxGraphModel dx="1918" dy="574" grid="1" gridSize="10" guides="1" tooltips="1" connect="1" arrows="1" fold="1" page="1" pageScale="1" pageWidth="827" pageHeight="1169" math="0" shadow="0">
      <root>
        <mxCell id="0" />
        <mxCell id="1" parent="0" />
        <mxCell id="jzfJtxgWUhghKAzjM1r1-2" style="edgeStyle=orthogonalEdgeStyle;rounded=0;orthogonalLoop=1;jettySize=auto;html=1;exitX=1;exitY=0.25;exitDx=0;exitDy=0;entryX=0;entryY=0.25;entryDx=0;entryDy=0;" parent="1" source="jzfJtxgWUhghKAzjM1r1-1" target="jzfJtxgWUhghKAzjM1r1-3" edge="1">
          <mxGeometry relative="1" as="geometry">
            <mxPoint x="270" y="300" as="targetPoint" />
          </mxGeometry>
        </mxCell>
        <mxCell id="jzfJtxgWUhghKAzjM1r1-5" value="1:Checks for commit" style="edgeLabel;html=1;align=center;verticalAlign=middle;resizable=0;points=[];" parent="jzfJtxgWUhghKAzjM1r1-2" vertex="1" connectable="0">
          <mxGeometry x="-0.095" relative="1" as="geometry">
            <mxPoint as="offset" />
          </mxGeometry>
        </mxCell>
        <mxCell id="jzfJtxgWUhghKAzjM1r1-6" style="edgeStyle=orthogonalEdgeStyle;rounded=0;orthogonalLoop=1;jettySize=auto;html=1;" parent="1" source="jzfJtxgWUhghKAzjM1r1-1" target="jzfJtxgWUhghKAzjM1r1-7" edge="1">
          <mxGeometry relative="1" as="geometry">
            <mxPoint x="100" y="400" as="targetPoint" />
          </mxGeometry>
        </mxCell>
        <mxCell id="jzfJtxgWUhghKAzjM1r1-9" value="2.:run build docker instance" style="edgeLabel;html=1;align=center;verticalAlign=middle;resizable=0;points=[];" parent="jzfJtxgWUhghKAzjM1r1-6" vertex="1" connectable="0">
          <mxGeometry x="-0.0882" relative="1" as="geometry">
            <mxPoint as="offset" />
          </mxGeometry>
        </mxCell>
        <mxCell id="jzfJtxgWUhghKAzjM1r1-1" value="&amp;lt;&amp;lt;CI/CD Driver&amp;gt;&amp;gt;&amp;nbsp;&lt;div&gt;Jenkins&lt;/div&gt;" style="rounded=0;whiteSpace=wrap;html=1;" parent="1" vertex="1">
          <mxGeometry x="100" y="280" width="120" height="40" as="geometry" />
        </mxCell>
        <mxCell id="jzfJtxgWUhghKAzjM1r1-3" value="&amp;lt;&amp;lt;repository&amp;gt;&amp;gt; Github" style="rounded=0;whiteSpace=wrap;html=1;" parent="1" vertex="1">
          <mxGeometry x="350" y="280" width="110" height="40" as="geometry" />
        </mxCell>
        <mxCell id="jzfJtxgWUhghKAzjM1r1-13" style="edgeStyle=orthogonalEdgeStyle;rounded=0;orthogonalLoop=1;jettySize=auto;html=1;entryX=0;entryY=0.75;entryDx=0;entryDy=0;" parent="1" source="jzfJtxgWUhghKAzjM1r1-7" target="jzfJtxgWUhghKAzjM1r1-7" edge="1">
          <mxGeometry relative="1" as="geometry">
            <mxPoint x="40" y="490" as="targetPoint" />
            <Array as="points">
              <mxPoint x="40" y="470" />
              <mxPoint x="40" y="485" />
            </Array>
          </mxGeometry>
        </mxCell>
        <mxCell id="jzfJtxgWUhghKAzjM1r1-14" value="4.compiles code" style="edgeLabel;html=1;align=center;verticalAlign=middle;resizable=0;points=[];" parent="jzfJtxgWUhghKAzjM1r1-13" vertex="1" connectable="0">
          <mxGeometry x="0.0772" y="-2" relative="1" as="geometry">
            <mxPoint as="offset" />
          </mxGeometry>
        </mxCell>
        <mxCell id="jzfJtxgWUhghKAzjM1r1-7" value="&amp;lt;&amp;lt;container&amp;gt;&amp;gt;&lt;div&gt;&amp;nbsp;build docker&lt;/div&gt;" style="rounded=0;whiteSpace=wrap;html=1;" parent="1" vertex="1">
          <mxGeometry x="100" y="440" width="120" height="60" as="geometry" />
        </mxCell>
        <mxCell id="jzfJtxgWUhghKAzjM1r1-11" style="edgeStyle=orthogonalEdgeStyle;rounded=0;orthogonalLoop=1;jettySize=auto;html=1;entryX=1;entryY=0.75;entryDx=0;entryDy=0;" parent="1" source="jzfJtxgWUhghKAzjM1r1-8" target="jzfJtxgWUhghKAzjM1r1-8" edge="1">
          <mxGeometry relative="1" as="geometry">
            <mxPoint x="510" y="500" as="targetPoint" />
            <Array as="points">
              <mxPoint x="280" y="600" />
              <mxPoint x="280" y="620" />
              <mxPoint x="210" y="620" />
            </Array>
          </mxGeometry>
        </mxCell>
        <mxCell id="jzfJtxgWUhghKAzjM1r1-12" value="runs tests" style="edgeLabel;html=1;align=center;verticalAlign=middle;resizable=0;points=[];" parent="jzfJtxgWUhghKAzjM1r1-11" vertex="1" connectable="0">
          <mxGeometry x="-0.1111" y="2" relative="1" as="geometry">
            <mxPoint x="-1" y="-1" as="offset" />
          </mxGeometry>
        </mxCell>
        <mxCell id="jzfJtxgWUhghKAzjM1r1-28" style="edgeStyle=orthogonalEdgeStyle;rounded=0;orthogonalLoop=1;jettySize=auto;html=1;entryX=0.5;entryY=1;entryDx=0;entryDy=0;" parent="1" source="jzfJtxgWUhghKAzjM1r1-8" edge="1" target="jzfJtxgWUhghKAzjM1r1-7">
          <mxGeometry relative="1" as="geometry">
            <mxPoint x="220" y="480" as="targetPoint" />
            <Array as="points">
              <mxPoint x="160" y="590" />
              <mxPoint x="160" y="590" />
            </Array>
          </mxGeometry>
        </mxCell>
        <mxCell id="jzfJtxgWUhghKAzjM1r1-32" value="6.cheks code" style="edgeLabel;html=1;align=center;verticalAlign=middle;resizable=0;points=[];" parent="jzfJtxgWUhghKAzjM1r1-28" vertex="1" connectable="0">
          <mxGeometry x="-0.1066" y="1" relative="1" as="geometry">
            <mxPoint as="offset" />
          </mxGeometry>
        </mxCell>
        <mxCell id="jzfJtxgWUhghKAzjM1r1-8" value="Test docker" style="rounded=0;whiteSpace=wrap;html=1;" parent="1" vertex="1">
          <mxGeometry x="90" y="580" width="120" height="60" as="geometry" />
        </mxCell>
        <mxCell id="jzfJtxgWUhghKAzjM1r1-18" value="" style="endArrow=classic;html=1;rounded=0;entryX=0.25;entryY=1;entryDx=0;entryDy=0;exitX=1;exitY=0;exitDx=0;exitDy=0;" parent="1" source="jzfJtxgWUhghKAzjM1r1-7" target="jzfJtxgWUhghKAzjM1r1-3" edge="1">
          <mxGeometry width="50" height="50" relative="1" as="geometry">
            <mxPoint x="390" y="490" as="sourcePoint" />
            <mxPoint x="440" y="440" as="targetPoint" />
            <Array as="points" />
          </mxGeometry>
        </mxCell>
        <mxCell id="jzfJtxgWUhghKAzjM1r1-19" value="3.clones repo" style="edgeLabel;html=1;align=center;verticalAlign=middle;resizable=0;points=[];" parent="jzfJtxgWUhghKAzjM1r1-18" vertex="1" connectable="0">
          <mxGeometry x="-0.0205" y="2" relative="1" as="geometry">
            <mxPoint as="offset" />
          </mxGeometry>
        </mxCell>
        <mxCell id="7e24VJdr4YMpn3rbzWJH-1" style="edgeStyle=orthogonalEdgeStyle;rounded=0;orthogonalLoop=1;jettySize=auto;html=1;entryX=0.161;entryY=0.048;entryDx=0;entryDy=0;entryPerimeter=0;" edge="1" parent="1" source="jzfJtxgWUhghKAzjM1r1-21" target="jzfJtxgWUhghKAzjM1r1-7">
          <mxGeometry relative="1" as="geometry">
            <Array as="points">
              <mxPoint x="119" y="410" />
            </Array>
          </mxGeometry>
        </mxCell>
        <mxCell id="7e24VJdr4YMpn3rbzWJH-3" value="8.copy /build" style="edgeLabel;html=1;align=center;verticalAlign=middle;resizable=0;points=[];" vertex="1" connectable="0" parent="7e24VJdr4YMpn3rbzWJH-1">
          <mxGeometry x="0.0951" y="-3" relative="1" as="geometry">
            <mxPoint x="-24" y="-13" as="offset" />
          </mxGeometry>
        </mxCell>
        <mxCell id="jzfJtxgWUhghKAzjM1r1-21" value="&amp;lt;&amp;lt;container&amp;gt;&amp;gt;&lt;div&gt;deploy&lt;/div&gt;" style="rounded=0;whiteSpace=wrap;html=1;" parent="1" vertex="1">
          <mxGeometry x="-120" y="390" width="120" height="60" as="geometry" />
        </mxCell>
        <mxCell id="jzfJtxgWUhghKAzjM1r1-22" value="" style="endArrow=classic;html=1;rounded=0;exitX=0;exitY=0.75;exitDx=0;exitDy=0;entryX=1;entryY=0.75;entryDx=0;entryDy=0;" parent="1" source="jzfJtxgWUhghKAzjM1r1-3" target="jzfJtxgWUhghKAzjM1r1-1" edge="1">
          <mxGeometry width="50" height="50" relative="1" as="geometry">
            <mxPoint x="390" y="490" as="sourcePoint" />
            <mxPoint x="240" y="270" as="targetPoint" />
          </mxGeometry>
        </mxCell>
        <mxCell id="jzfJtxgWUhghKAzjM1r1-23" value="1.1:new commit data" style="edgeLabel;html=1;align=center;verticalAlign=middle;resizable=0;points=[];" parent="jzfJtxgWUhghKAzjM1r1-22" vertex="1" connectable="0">
          <mxGeometry x="-0.0611" y="-1" relative="1" as="geometry">
            <mxPoint as="offset" />
          </mxGeometry>
        </mxCell>
        <mxCell id="jzfJtxgWUhghKAzjM1r1-24" value="" style="endArrow=classic;html=1;rounded=0;exitX=0;exitY=0.25;exitDx=0;exitDy=0;" parent="1" source="jzfJtxgWUhghKAzjM1r1-1" edge="1">
          <mxGeometry width="50" height="50" relative="1" as="geometry">
            <mxPoint x="140" y="290" as="sourcePoint" />
            <mxPoint x="80" y="600" as="targetPoint" />
            <Array as="points">
              <mxPoint x="-180" y="290" />
              <mxPoint x="-180" y="540" />
              <mxPoint x="-180" y="600" />
            </Array>
          </mxGeometry>
        </mxCell>
        <mxCell id="jzfJtxgWUhghKAzjM1r1-25" value="5.run test docker instance" style="edgeLabel;html=1;align=center;verticalAlign=middle;resizable=0;points=[];" parent="jzfJtxgWUhghKAzjM1r1-24" vertex="1" connectable="0">
          <mxGeometry x="0.3364" y="-1" relative="1" as="geometry">
            <mxPoint x="118" y="12" as="offset" />
          </mxGeometry>
        </mxCell>
        <mxCell id="7e24VJdr4YMpn3rbzWJH-4" style="edgeStyle=orthogonalEdgeStyle;rounded=0;orthogonalLoop=1;jettySize=auto;html=1;exitX=0;exitY=0.5;exitDx=0;exitDy=0;entryX=0.36;entryY=0.01;entryDx=0;entryDy=0;entryPerimeter=0;" edge="1" parent="1" source="jzfJtxgWUhghKAzjM1r1-1" target="jzfJtxgWUhghKAzjM1r1-21">
          <mxGeometry relative="1" as="geometry">
            <Array as="points">
              <mxPoint x="100" y="310" />
              <mxPoint x="-77" y="310" />
            </Array>
          </mxGeometry>
        </mxCell>
        <mxCell id="7e24VJdr4YMpn3rbzWJH-5" value="7. run deploy docker container" style="edgeLabel;html=1;align=center;verticalAlign=middle;resizable=0;points=[];" vertex="1" connectable="0" parent="7e24VJdr4YMpn3rbzWJH-4">
          <mxGeometry x="0.2695" y="4" relative="1" as="geometry">
            <mxPoint x="2" y="-9" as="offset" />
          </mxGeometry>
        </mxCell>
        <mxCell id="7e24VJdr4YMpn3rbzWJH-8" style="edgeStyle=orthogonalEdgeStyle;rounded=0;orthogonalLoop=1;jettySize=auto;html=1;exitX=0.25;exitY=1;exitDx=0;exitDy=0;entryX=0.673;entryY=-0.019;entryDx=0;entryDy=0;entryPerimeter=0;" edge="1" parent="1" source="jzfJtxgWUhghKAzjM1r1-1" target="jzfJtxgWUhghKAzjM1r1-21">
          <mxGeometry relative="1" as="geometry" />
        </mxCell>
        <mxCell id="7e24VJdr4YMpn3rbzWJH-10" value="9. copy /build" style="edgeLabel;html=1;align=center;verticalAlign=middle;resizable=0;points=[];" vertex="1" connectable="0" parent="7e24VJdr4YMpn3rbzWJH-8">
          <mxGeometry x="0.374" y="-2" relative="1" as="geometry">
            <mxPoint as="offset" />
          </mxGeometry>
        </mxCell>
        <mxCell id="7e24VJdr4YMpn3rbzWJH-11" value="&amp;lt;&amp;lt;Repository&amp;gt;&amp;gt;&lt;div&gt;DockerHub&lt;/div&gt;" style="rounded=0;whiteSpace=wrap;html=1;" vertex="1" parent="1">
          <mxGeometry x="-10" y="190" width="130" height="40" as="geometry" />
        </mxCell>
        <mxCell id="7e24VJdr4YMpn3rbzWJH-13" style="edgeStyle=orthogonalEdgeStyle;rounded=0;orthogonalLoop=1;jettySize=auto;html=1;entryX=0.832;entryY=1.089;entryDx=0;entryDy=0;entryPerimeter=0;" edge="1" parent="1" source="jzfJtxgWUhghKAzjM1r1-1" target="7e24VJdr4YMpn3rbzWJH-11">
          <mxGeometry relative="1" as="geometry" />
        </mxCell>
        <mxCell id="7e24VJdr4YMpn3rbzWJH-14" value="publish deploy" style="edgeLabel;html=1;align=center;verticalAlign=middle;resizable=0;points=[];" vertex="1" connectable="0" parent="7e24VJdr4YMpn3rbzWJH-13">
          <mxGeometry x="0.1589" y="2" relative="1" as="geometry">
            <mxPoint x="1" as="offset" />
          </mxGeometry>
        </mxCell>
      </root>
    </mxGraphModel>
  </diagram>
</mxfile>
